<?xml version="1.0" encoding="UTF-8"?>
<svg id="Layer_1" data-name="Layer 1" xmlns="http://www.w3.org/2000/svg" width="338.63" height="179.62" viewBox="0 0 338.63 179.62">
  <defs>
    <style>
      .cls-1 {
        fill: #31363f;
      }

      .cls-1, .cls-2 {
        stroke-width: 0px;
      }

      .cls-2 {
        fill: #fcb316;
      }
    </style>
  </defs>
  <g>
    <polygon class="cls-2" points="234.47 179.62 181.54 179.62 156.6 136.05 131.85 92.86 78.67 0 131.6 0 174.59 75.09 192.7 106.69 234.47 179.62"/>
    <polygon class="cls-2" points="155.79 179.62 102.86 179.62 68.34 119.3 0 0 52.93 0 111.08 101.53 139.02 150.32 155.79 179.62"/>
  </g>
  <path class="cls-1" d="M338.63,0l-5.08,8.91h-.03l-86.42,150.96-29.54-51.56c-4.92-8.59-2.89-19.48,4.79-25.72l69.05-56.13-82.34,34.27c-8.65,3.6-18.63.2-23.29-7.93L155.54,0h183.09Z"/>
</svg>