<svg width="10" height="11" viewBox="0 0 10 11" fill="none" xmlns="http://www.w3.org/2000/svg">
<mask id="mask0_994_369" style="mask-type:alpha" maskUnits="userSpaceOnUse" x="0" y="0" width="10" height="11">
<path d="M5.6237 1.33334C5.6237 0.988166 5.34388 0.708344 4.9987 0.708344C4.65352 0.708344 4.3737 0.988166 4.3737 1.33334V4.87501H0.832031C0.486854 4.87501 0.207031 5.15483 0.207031 5.50001C0.207031 5.84519 0.486854 6.12501 0.832031 6.12501H4.3737V9.66668C4.3737 10.0119 4.65352 10.2917 4.9987 10.2917C5.34388 10.2917 5.6237 10.0119 5.6237 9.66668V6.12501H9.16537C9.51054 6.12501 9.79037 5.84519 9.79037 5.50001C9.79037 5.15483 9.51054 4.87501 9.16537 4.87501H5.6237V1.33334Z" fill="#006FFD"/>
</mask>
<g mask="url(#mask0_994_369)">
<rect y="0.5" width="10" height="10" fill="#555874"/>
</g>
</svg>
